<svg xmlns="http://www.w3.org/2000/svg" viewBox="0 0 211.47 151.99"><defs><style>.cls-1{fill:#3a92ce;}.cls-2{fill:#16344f;}</style></defs><g id="Warstwa_2" data-name="Warstwa 2"><g id="_2k20" data-name="2k20"><g id="Left"><polygon class="cls-1" points="12.88 69.51 22.68 69.51 87.28 4.9 82.39 0.01 12.88 69.51"/><polygon class="cls-1" points="93.06 10.66 82.4 0 82.39 0.01 77.5 4.9 113.01 40.4 117.91 35.51 93.06 10.66"/></g><g id="Right"><path class="cls-1" d="M135.66,25.62l-1.78,1.78L107.8,53.48l-32,32.05a15.87,15.87,0,0,1,4.54,5.26l26.17-26.18L131.1,40l9.46-9.45Z"/><path class="cls-1" d="M141.84,31.8,136,25.92l-4.9,4.9L183.7,83.45a13,13,0,0,1,5.81-1.36,13.63,13.63,0,0,1,3,.34Z"/></g><path class="cls-2" d="M0,126.3V75.11H17.94q9.31,0,14.13,3.57t4.82,10.46A11.57,11.57,0,0,1,35,95.77a11.16,11.16,0,0,1-5.38,4.2,10.82,10.82,0,0,1,6.21,4,11.76,11.76,0,0,1,2.27,7.32q0,7.38-4.72,11.17T19.91,126.3ZM10.55,96.56h7.81q8-.14,8-6.36,0-3.48-2-5t-6.38-1.53H10.55Zm0,7.45v13.82h9a8.71,8.71,0,0,0,5.82-1.78,6.08,6.08,0,0,0,2.09-4.9q0-7-7.28-7.14Z"/><path class="cls-2" d="M62.8,127q-8.37,0-13.63-5.14T43.92,108.2v-1A23.1,23.1,0,0,1,46.13,97a16.28,16.28,0,0,1,6.28-7,17.57,17.57,0,0,1,9.26-2.44q7.8,0,12.29,4.92t4.48,14v4.15H54.22a9.45,9.45,0,0,0,3,6,9,9,0,0,0,6.27,2.25,11,11,0,0,0,9.18-4.25l5,5.59a15.09,15.09,0,0,1-6.19,5A20.23,20.23,0,0,1,62.8,127ZM61.64,95.75a6.33,6.33,0,0,0-4.91,2,10.64,10.64,0,0,0-2.41,5.86H68.46v-.81a7.61,7.61,0,0,0-1.83-5.25A6.57,6.57,0,0,0,61.64,95.75Z"/><path class="cls-2" d="M104.81,115.79a3.29,3.29,0,0,0-1.85-2.94A21,21,0,0,0,97,110.94q-13.58-2.85-13.57-11.53A10.45,10.45,0,0,1,87.67,91q4.2-3.39,11-3.39,7.23,0,11.58,3.41a10.76,10.76,0,0,1,4.34,8.86H104.42a4.91,4.91,0,0,0-1.41-3.6,5.93,5.93,0,0,0-4.39-1.43,6.08,6.08,0,0,0-4,1.16,3.67,3.67,0,0,0-1.41,3,3.12,3.12,0,0,0,1.6,2.72,16.48,16.48,0,0,0,5.4,1.79,45.48,45.48,0,0,1,6.4,1.71q8,3,8,10.23a9.92,9.92,0,0,1-4.47,8.42Q105.77,127,98.69,127a20,20,0,0,1-8.49-1.71,14.33,14.33,0,0,1-5.82-4.68,10.88,10.88,0,0,1-2.11-6.41h9.64a5.31,5.31,0,0,0,2,4.15,7.93,7.93,0,0,0,5,1.44,7.31,7.31,0,0,0,4.41-1.11A3.44,3.44,0,0,0,104.81,115.79Z"/><path class="cls-2" d="M135,111l-3.65,3.66v11.6H121.23v-54h10.16v29.92l2-2.53,9.74-11.43h12.2l-13.74,15.86,14.94,22.18H144.82Z"/><path class="cls-2" d="M159.62,78.42a5,5,0,0,1,1.53-3.76,6.57,6.57,0,0,1,8.31,0,5.36,5.36,0,0,1,0,7.56,6.54,6.54,0,0,1-8.26,0A5,5,0,0,1,159.62,78.42Zm10.79,47.88h-10.2v-38h10.2Z"/><path class="cls-2" d="M177.19,107q0-8.9,4-14.17a13,13,0,0,1,10.92-5.27,11.66,11.66,0,0,1,9.18,4.15V72.3h10.19v54H202.3l-.5-4A12,12,0,0,1,192,127a12.92,12.92,0,0,1-10.78-5.3Q177.2,116.43,177.19,107Zm10.16.76c0,3.57.63,6.3,1.87,8.2a6.06,6.06,0,0,0,5.41,2.85,6.8,6.8,0,0,0,6.65-4v-15a6.71,6.71,0,0,0-6.58-4Q187.35,95.82,187.35,107.76Z"/><g id="IT_ACADEMIC_DAY" data-name="IT ACADEMIC DAY"><path class="cls-2" d="M1.56,151.74H0V133.26H1.56Z"/><path class="cls-2" d="M18.75,134.58H12.42v17.16H10.85V134.58H4.53v-1.32H18.75Z"/><path class="cls-2" d="M38.91,146.54h-8.4l-1.9,5.2H27l7-18.49h1.48l7,18.49H40.82ZM31,145.22h7.41L34.7,135.16Z"/><path class="cls-2" d="M58.11,146A6.57,6.57,0,0,1,56,150.44,6.91,6.91,0,0,1,51.31,152a6.51,6.51,0,0,1-3.64-1,6.68,6.68,0,0,1-2.44-2.91,10.37,10.37,0,0,1-.88-4.31v-2.4a10.58,10.58,0,0,1,.86-4.37A6.68,6.68,0,0,1,47.7,134a6.76,6.76,0,0,1,3.72-1,6.17,6.17,0,0,1,6.69,6H56.54q-.59-4.71-5.12-4.71a4.85,4.85,0,0,0-4,1.88,8.11,8.11,0,0,0-1.49,5.2v2.26a8.19,8.19,0,0,0,1.45,5.1,4.67,4.67,0,0,0,3.93,1.91A5.21,5.21,0,0,0,55,149.5,5.68,5.68,0,0,0,56.54,146Z"/><path class="cls-2" d="M71.89,146.54H63.5l-1.91,5.2H60l7-18.49h1.48l7,18.49H73.8ZM64,145.22h7.41l-3.7-10.06Z"/><path class="cls-2" d="M78.15,151.74V133.25h5.16a8,8,0,0,1,4.08,1,7.17,7.17,0,0,1,2.81,3,9.38,9.38,0,0,1,1,4.39v1.71a9.31,9.31,0,0,1-1,4.39,7.15,7.15,0,0,1-2.83,3,8.31,8.31,0,0,1-4.18,1Zm1.56-17.17v15.85h3.5a6.05,6.05,0,0,0,4.69-1.94,7.51,7.51,0,0,0,1.76-5.24v-1.63a7.33,7.33,0,0,0-1.74-5.11,5.93,5.93,0,0,0-4.58-1.93Z"/><path class="cls-2" d="M105.38,142.88H96.73v7.54h9.94v1.32H95.17V133.25h11.44v1.32H96.73v7h8.65Z"/><path class="cls-2" d="M112,133.25l6.82,16.32,6.84-16.32h2.08v18.49h-1.56v-8.05l.13-8.25-6.88,16.3h-1.21L111.4,135.5l.12,8.14v8.1H110V133.25Z"/><path class="cls-2" d="M134.36,151.74H132.8V133.25h1.56Z"/><path class="cls-2" d="M152.46,146a6.6,6.6,0,0,1-2.08,4.47,6.94,6.94,0,0,1-4.72,1.55,6.51,6.51,0,0,1-3.64-1,6.68,6.68,0,0,1-2.44-2.91,10.37,10.37,0,0,1-.88-4.31v-2.4a10.43,10.43,0,0,1,.87-4.37,6.6,6.6,0,0,1,2.48-2.94,6.76,6.76,0,0,1,3.72-1,6.16,6.16,0,0,1,6.69,6h-1.57c-.39-3.14-2.09-4.71-5.12-4.71a4.85,4.85,0,0,0-4,1.88,8.11,8.11,0,0,0-1.49,5.2v2.26a8.19,8.19,0,0,0,1.45,5.1,4.67,4.67,0,0,0,3.93,1.91,5.21,5.21,0,0,0,3.69-1.17,5.63,5.63,0,0,0,1.54-3.53Z"/><path class="cls-2" d="M166.77,151.74V133.25h5.17a8.07,8.07,0,0,1,4.08,1,7.17,7.17,0,0,1,2.81,3,9.39,9.39,0,0,1,1,4.4v1.7a9.32,9.32,0,0,1-1,4.39,7.13,7.13,0,0,1-2.82,3,8.31,8.31,0,0,1-4.18,1Zm1.57-17.17v15.85h3.5a6,6,0,0,0,4.68-1.94,7.47,7.47,0,0,0,1.77-5.24v-1.63a7.29,7.29,0,0,0-1.74-5.1,5.94,5.94,0,0,0-4.58-1.94Z"/><path class="cls-2" d="M193.51,146.55h-8.39l-1.91,5.19h-1.63l7-18.49h1.49l7,18.49h-1.62Zm-7.91-1.32H193l-3.71-10.07Z"/><path class="cls-2" d="M204,143.33l5.65-10.08h1.8l-6.68,11.53v7h-1.56v-7l-6.67-11.53h1.86Z"/></g></g></g></svg>